<svg width="60" height="61" viewBox="0 0 60 61" fill="none" xmlns="http://www.w3.org/2000/svg">
<g filter="url(#filter0_d_104_1729)">
<path d="M0 12C0 5.37258 5.37258 0 12 0H48C54.6274 0 60 5.37258 60 12V48C60 54.6274 54.6274 60 48 60H12C5.37258 60 0 54.6274 0 48V12Z" fill="white" shape-rendering="crispEdges"/>
<path d="M12 0.5H48C54.3513 0.5 59.5 5.64873 59.5 12V48C59.5 54.3513 54.3513 59.5 48 59.5H12C5.64873 59.5 0.5 54.3513 0.5 48V12C0.5 5.64873 5.64873 0.5 12 0.5Z" stroke="#E9EDE8" shape-rendering="crispEdges"/>
<path d="M32.6768 17.1626V25.9776L27.3218 35.0227H19.0269C18.0852 35.0227 17.2352 34.501 16.8069 33.6627C16.3802 32.8244 16.4569 31.8294 17.0119 31.0677L28.1702 15.6976C28.8168 14.8076 29.9085 14.451 30.9552 14.7926C32.0018 15.131 32.6768 16.061 32.6768 17.1626Z" fill="#49AC9B"/>
<path opacity="0.4" d="M27.2927 43.8319V35.0169L32.6477 25.9719H40.9427C41.8844 25.9719 42.7344 26.4936 43.1627 27.3319C43.5894 28.1702 43.5127 29.1652 42.9577 29.9269L31.7994 45.2969C31.1527 46.1869 30.0611 46.5436 29.0144 46.2019C27.9677 45.8636 27.2927 44.9336 27.2927 43.8319Z" fill="#49AC9B"/>
</g>
<defs>
<filter id="filter0_d_104_1729" x="0" y="0" width="60" height="61" filterUnits="userSpaceOnUse" color-interpolation-filters="sRGB">
<feFlood flood-opacity="0" result="BackgroundImageFix"/>
<feColorMatrix in="SourceAlpha" type="matrix" values="0 0 0 0 0 0 0 0 0 0 0 0 0 0 0 0 0 0 127 0" result="hardAlpha"/>
<feOffset dy="1"/>
<feComposite in2="hardAlpha" operator="out"/>
<feColorMatrix type="matrix" values="0 0 0 0 0.913725 0 0 0 0 0.929412 0 0 0 0 0.909804 0 0 0 1 0"/>
<feBlend mode="normal" in2="BackgroundImageFix" result="effect1_dropShadow_104_1729"/>
<feBlend mode="normal" in="SourceGraphic" in2="effect1_dropShadow_104_1729" result="shape"/>
</filter>
</defs>
</svg>
