<svg width="20" height="20" viewBox="0 0 20 20" fill="none" xmlns="http://www.w3.org/2000/svg">
<path d="M7.20664 1.18306C6.96256 0.938981 6.56684 0.938981 6.32276 1.18306C6.07868 1.42714 6.07868 1.82286 6.32276 2.06695C6.46814 2.21233 6.46748 2.44708 6.32322 2.59104C5.69019 3.22407 5.68906 4.25146 6.32322 4.88429C6.56755 5.12811 6.96328 5.1277 7.2071 4.88336C7.45093 4.63903 7.45051 4.24331 7.20618 3.99948C7.06192 3.85552 7.06125 3.62077 7.20664 3.47539C7.84034 2.84251 7.83952 1.81594 7.20664 1.18306Z" fill="#163A34"/>
<path d="M15.446 3.99178C15.6901 3.74771 15.6901 3.35198 15.446 3.1079C15.2019 2.86382 14.8063 2.86382 14.5622 3.1079C13.9291 3.74093 13.9284 4.76786 14.5626 5.40069C14.8069 5.64452 15.2027 5.6441 15.4465 5.39977C15.6903 5.15543 15.6899 4.75971 15.4456 4.51588C15.3013 4.37192 15.3007 4.13717 15.446 3.99178Z" fill="#163A34"/>
<path d="M3.48772 4.51639C3.24364 4.27232 2.84791 4.27232 2.60383 4.51639C2.35976 4.76048 2.35976 5.1562 2.60383 5.40028C2.74922 5.54567 2.74856 5.78042 2.60429 5.92438C2.35997 6.1682 2.35955 6.56393 2.60337 6.80826C2.8472 7.05259 3.24292 7.05301 3.48726 6.80918C4.12141 6.17635 4.12075 5.14943 3.48772 4.51639Z" fill="#163A34"/>
<path fill-rule="evenodd" clip-rule="evenodd" d="M9.98426 4.30424C9.02959 4.30424 8.25739 5.07845 8.25739 6.03194V6.59979C5.10145 7.2689 2.7323 9.7288 2.91055 12.6949C2.92378 12.9149 3.10606 13.0866 3.32647 13.0866H16.6428C16.8633 13.0866 17.0456 12.9149 17.0588 12.6948C17.2363 9.72864 14.8668 7.26867 11.7112 6.59969V6.03194C11.7112 5.07815 10.9378 4.30424 9.98426 4.30424ZM10.4612 6.43335V6.03194C10.4612 5.7679 10.2469 5.55424 9.98426 5.55424C9.72117 5.55424 9.50742 5.7676 9.50742 6.03194V6.43338C9.66526 6.42445 9.82442 6.41991 9.98467 6.41991C10.1446 6.41991 10.3035 6.42444 10.4612 6.43335Z" fill="#163A34"/>
<path d="M2.31621 14.1558C2.48455 14.0207 2.69076 13.9683 2.90113 13.9683H17.0678C17.2782 13.9683 17.4844 14.0207 17.6528 14.1558C17.8214 14.2912 17.9061 14.4728 17.943 14.6443C18.0119 14.9645 17.9323 15.3281 17.8364 15.616C17.568 16.4211 16.8135 16.9649 15.9646 16.9649H4.00436C3.15539 16.9649 2.40096 16.4213 2.13259 15.6162C2.03676 15.3283 1.95706 14.9645 2.0259 14.6443C2.06279 14.4728 2.1476 14.2912 2.31621 14.1558Z" fill="#163A34"/>
</svg>
