<svg width="201" height="143" viewBox="0 0 201 143" fill="none" xmlns="http://www.w3.org/2000/svg">
<path d="M6.52269 12.4026C33.3001 1.18627 35.0303 44.9437 42.2006 57.5996C45.9803 64.2638 51.4091 71.1391 58.9073 73.8435C85.0086 83.2687 125.703 31.6974 135.496 74.799C140.398 96.3804 134.313 118.677 154.276 134.734C167.929 145.717 184.877 145.54 198.423 135.338C203.869 131.235 196.987 123.158 191.587 127.279C170.522 143.366 152.6 116.012 147.939 99.5963C145.606 91.3836 146.878 83.2276 146.073 74.9486C145.337 67.36 144.467 60.9794 139.573 54.8238C129.855 42.5954 112.583 41.8539 99.1315 47.4961C95.8502 48.8684 92.9877 51.1675 89.8136 52.704C81.3086 56.8154 64.3289 62.5214 54.8788 57.7509C46.3601 53.4546 43.8204 22.5309 37.7828 13.7803C29.5232 1.81179 16.8743 -3.3746 3.40753 2.306C-2.81381 4.92546 0.235485 15.0338 6.52269 12.4026Z" fill="#49AC9B"/>
</svg>
