<svg width="20" height="20" viewBox="0 0 20 20" fill="none" xmlns="http://www.w3.org/2000/svg">
<path fill-rule="evenodd" clip-rule="evenodd" d="M6.64998 10.52C8.72998 10.52 10.41 8.83996 10.41 6.76C10.49 4.68 8.80998 3 6.64998 3C4.57001 3 2.89001 4.68 2.89001 6.76C2.89001 8.83996 4.57001 10.52 6.64998 10.52Z" fill="#163A34"/>
<path fill-rule="evenodd" clip-rule="evenodd" d="M12.1701 15.8C11.9301 14.92 11.4501 14.12 10.4901 13.48C9.69008 12.92 8.41008 12.52 6.65008 12.52C3.21012 12.52 1.53012 14.12 1.05012 15.8C0.890117 16.28 1.13012 16.76 1.53012 17C2.97012 17.96 4.73012 18.44 6.65008 18.44C8.49008 18.44 10.2501 17.88 11.6901 17C12.0901 16.76 12.3301 16.28 12.1701 15.8Z" fill="#163A34"/>
</svg>
